<svg width="246" height="70" viewBox="0 0 246 70" fill="none" xmlns="http://www.w3.org/2000/svg">
<path d="M1.04 36.984C0.981334 36.5733 0.952 35.8987 0.952 34.96C0.952 32.672 1.18667 30.4427 1.656 28.272C2.12533 26.1013 2.8 23.7253 3.68 21.144C4.56 18.7387 6.232 16.3333 8.696 13.928C11.16 11.5227 13.9173 9.55733 16.968 8.032C20.0187 6.448 22.776 5.656 25.24 5.656C27.7627 5.656 30.2267 6.59466 32.632 8.472C35.0373 10.2907 36.5627 12.3733 37.208 14.72C37.3253 15.424 37.384 15.8933 37.384 16.128C37.384 17.008 37.12 17.6827 36.592 18.152C36.1227 18.5627 35.4773 18.768 34.656 18.768C34.0107 18.768 33.512 18.7387 33.16 18.68C32.984 18.68 32.72 18.5627 32.368 18.328C30.6667 17.3893 29.024 16.92 27.44 16.92C24.448 16.92 21.4853 18.4747 18.552 21.584C13.5653 26.8053 11.072 33.024 11.072 40.24C11.072 42.8213 11.336 45.3147 11.864 47.72C12.4507 50.4187 13.4773 52.4133 14.944 53.704C16.4693 54.936 18.4933 55.552 21.016 55.552C21.896 55.552 22.864 55.464 23.92 55.288C27.616 54.8187 31.0187 53.704 34.128 51.944C37.2373 50.1253 40.6693 47.72 44.424 44.728C45.304 44.024 46.8587 42.5573 49.088 40.328L50.848 38.48C51.6107 37.7173 52.256 37.1893 52.784 36.896C53.3707 36.544 53.8987 36.368 54.368 36.368C55.1307 36.368 56.0693 36.7493 57.184 37.512C58.416 38.392 59.032 39.5067 59.032 40.856C59.032 41.7947 58.7093 42.6747 58.064 43.496C57.8293 43.9067 57.184 44.8747 56.128 46.4C55.072 47.8667 54.0453 49.1867 53.048 50.36C52.0507 51.5333 51.0533 52.5307 50.056 53.352C44.6587 58.104 39.0267 61.3013 33.16 62.944C30.5787 63.648 27.9973 64 25.416 64C20.664 64 16.44 62.7973 12.744 60.392C9.10667 57.9867 6.26133 54.848 4.208 50.976C2.15467 47.0453 1.09867 42.968 1.04 38.744V36.984ZM80.922 58.104C79.1033 59.2187 77.0207 59.776 74.674 59.776C72.0927 59.776 69.5993 59.1307 67.194 57.84C64.8473 56.4907 62.97 54.584 61.562 52.12C60.154 49.656 59.5673 46.84 59.802 43.672L60.242 41.56C60.594 39.448 60.8873 37.8933 61.122 36.896C61.65 34.7253 62.706 33.2 64.29 32.32C65.874 31.44 67.986 30.736 70.626 30.208C72.3273 29.856 73.9993 29.68 75.642 29.68C80.8047 29.68 85.146 31.4107 88.666 34.872C90.5433 36.7493 91.482 39.0373 91.482 41.736C91.482 44.376 90.514 47.2213 88.578 50.272C86.3487 53.7333 83.7967 56.344 80.922 58.104ZM73.53 34.168C72.5913 36.456 71.594 39.3013 70.538 42.704L69.658 45.344L70.274 45.608C70.274 46.0187 70.274 46.664 70.274 47.544C70.3327 48.3653 70.45 49.0693 70.626 49.656C71.2713 51.4747 72.0047 52.5893 72.826 53C73.178 53.176 73.6767 53.088 74.322 52.736C75.026 52.384 75.642 51.9733 76.17 51.504C76.9913 50.8 78.3113 49.3333 80.13 47.104C81.4793 45.5787 82.154 43.76 82.154 41.648C82.154 39.8293 81.626 38.1867 80.57 36.72C79.5727 35.2533 78.1647 34.256 76.346 33.728C76.17 33.6693 75.8473 33.64 75.378 33.64C74.2633 33.64 73.6473 33.816 73.53 34.168ZM114.889 35.048C114.889 35.1653 114.948 35.3413 115.065 35.576C115.241 35.8107 115.388 36.016 115.505 36.192L118.321 32.144C119.377 30.6187 120.697 29.7093 122.281 29.416C123.924 29.064 125.303 29.328 126.417 30.208C129.175 32.3787 131.081 34.8133 132.137 37.512L133.809 41.736L136.801 57.4C137.095 59.0427 137.652 60.8613 138.473 62.856C138.943 64.1467 139.265 65.1147 139.441 65.76L140.233 68.752C138.708 69.2213 137.447 69.456 136.449 69.456C132.812 69.456 130.641 67.8133 129.937 64.528C129.292 61.2427 128.529 57.3413 127.649 52.824L126.769 48.248C125.361 43.9653 123.836 41.8533 122.193 41.912C120.551 41.912 119.348 42.5573 118.585 43.848C117.471 45.6667 116.825 47.632 116.649 49.744C116.532 51.7973 116.473 54.5253 116.473 57.928C116.18 59.2187 115.74 60.128 115.153 60.656C114.567 61.1253 113.657 61.36 112.425 61.36C109.609 61.36 108.113 59.9813 107.937 57.224C107.703 53.9387 107.585 50.2427 107.585 46.136C107.585 44.9627 107.468 43.936 107.233 43.056C106.999 42.176 106.471 41.736 105.649 41.736C105.297 41.736 104.828 41.7653 104.241 41.824C103.713 41.8827 103.303 41.8827 103.009 41.824C101.953 41.5893 101.044 41.384 100.281 41.208C99.5186 41.032 98.8146 40.768 98.1693 40.416C97.5826 40.0053 97.348 39.3307 97.4653 38.392C97.6413 37.3947 97.964 36.456 98.4333 35.576C98.844 34.9893 99.284 34.432 99.7533 33.904C100.281 33.3173 100.956 32.672 101.777 31.968C103.948 30.0907 106.295 29.1227 108.817 29.064C110.695 29.0053 112.044 29.592 112.865 30.824C113.745 32.056 114.42 33.464 114.889 35.048ZM146.781 31.176C146.37 30.7067 146.077 30.208 145.901 29.68C145.784 29.152 145.666 28.4187 145.549 27.48C146.077 26.248 147.045 25.632 148.453 25.632C149.157 25.7493 149.656 25.808 149.949 25.808C151.122 25.808 151.856 25.456 152.149 24.752C152.442 24.048 152.589 23.2267 152.589 22.288C152.589 21.3493 152.589 20.616 152.589 20.088L152.853 14.808C152.912 13.6347 152.97 12.1973 153.029 10.496C153.146 8.736 153.264 6.712 153.381 4.424C153.44 3.192 153.733 2.28267 154.261 1.696C154.848 1.10933 155.64 0.815995 156.637 0.815995C157.341 0.815995 157.898 0.874663 158.309 0.991998C160.714 1.52 162.328 2.28266 163.149 3.27999C163.97 4.27733 164.528 5.77333 164.821 7.76799C164.88 8.17866 164.821 9.02933 164.645 10.32L163.061 24.048C163.002 24.4 162.914 24.84 162.797 25.368C162.68 25.8373 162.621 26.1893 162.621 26.424C162.621 26.952 162.914 27.304 163.501 27.48C164.088 27.656 165.173 27.7147 166.757 27.656C169.456 27.0693 171.509 26.688 172.917 26.512C173.21 26.4533 173.68 26.424 174.325 26.424C175.029 26.424 175.498 26.512 175.733 26.688C175.968 26.8053 176.144 27.1573 176.261 27.744C176.437 28.272 176.525 28.888 176.525 29.592C176.525 30.2373 176.437 30.824 176.261 31.352C176.144 31.88 175.968 32.1733 175.733 32.232C174.149 32.7013 172.272 33.0827 170.101 33.376C167.52 33.8453 165.613 34.256 164.381 34.608C163.736 34.784 163.09 35.224 162.445 35.928C161.8 36.632 161.448 37.2773 161.389 37.864C161.272 40.7387 161.184 43.672 161.125 46.664C161.066 48.952 161.154 51.24 161.389 53.528C161.565 55.464 161.946 56.872 162.533 57.752C163.12 58.5733 164 58.984 165.173 58.984C166.112 58.984 167.461 58.6613 169.221 58.016C170.16 57.6053 170.981 57.4 171.685 57.4C172.8 57.4 173.592 58.016 174.061 59.248C174.237 59.6587 174.325 60.0693 174.325 60.48C174.325 61.2427 174.032 61.8587 173.445 62.328C172.917 62.7973 172.184 63.208 171.245 63.56C169.485 64.2053 167.696 64.5573 165.877 64.616C163.413 64.616 161.096 64.0293 158.925 62.856C156.754 61.624 155.024 59.9227 153.733 57.752C152.501 55.5813 151.973 53.088 152.149 50.272C152.208 49.1573 152.237 47.3973 152.237 44.992C152.237 41.1787 152.09 37.3067 151.797 33.376C151.738 33.024 151.533 32.7893 151.181 32.672C150.829 32.496 150.242 32.32 149.421 32.144C148.072 31.9093 147.192 31.5867 146.781 31.176ZM185.535 55.112C185.653 54.2907 185.711 53.088 185.711 51.504L185.623 46.312L184.567 31L184.479 29.68C184.479 26.5707 185.799 25.016 188.439 25.016C189.085 25.016 189.642 25.2507 190.111 25.72C190.639 26.1893 191.109 26.424 191.519 26.424C192.399 26.424 193.162 26.0427 193.807 25.28C194.511 24.4587 195.245 23.6373 196.007 22.816C197.239 21.5253 198.677 20.4987 200.319 19.736C202.021 18.9733 203.722 18.592 205.423 18.592C207.066 18.592 208.386 18.7973 209.383 19.208C209.677 19.3253 209.999 19.5893 210.351 20C210.762 20.352 210.967 20.6453 210.967 20.88C210.967 21.1147 210.791 21.4667 210.439 21.936C210.146 22.3467 209.882 22.5813 209.647 22.64C207.359 23.1093 205.365 24.0773 203.663 25.544C202.021 27.0107 200.935 28.36 200.407 29.592C199.938 30.7653 199.234 32.9653 198.295 36.192C197.767 38.0107 197.357 39.888 197.063 41.824C196.829 43.7013 196.741 46.1067 196.799 49.04C196.741 49.3333 196.711 49.744 196.711 50.272C196.711 51.0347 196.77 52.0613 196.887 53.352C197.005 54.76 197.063 55.7573 197.063 56.344C197.063 59.2773 196.741 60.9493 196.095 61.36C195.157 61.8293 193.925 62.064 192.399 62.064C191.167 62.064 190.17 61.9173 189.407 61.624C186.767 60.6267 185.447 58.808 185.447 56.168C185.447 55.6987 185.477 55.3467 185.535 55.112ZM223.898 29.68C224.426 29.6213 224.866 29.6213 225.218 29.68C225.57 29.68 225.893 29.68 226.186 29.68C226.597 29.6213 227.213 29.592 228.034 29.592C232.023 29.592 235.954 30.736 239.826 33.024C241.527 34.08 242.378 35.1947 242.378 36.368C242.378 37.6587 241.498 38.8027 239.738 39.8C238.271 40.68 236.746 41.7067 235.162 42.88C232.346 44.7573 229.941 46.224 227.946 47.28C226.01 48.336 223.869 49.0693 221.522 49.48C221.17 49.5973 220.789 49.92 220.378 50.448C220.026 50.9173 219.879 51.2693 219.938 51.504C220.055 51.856 220.261 52.5893 220.554 53.704C220.847 54.76 221.17 55.6693 221.522 56.432C221.933 57.136 222.402 57.7227 222.93 58.192C223.517 58.6613 224.397 58.896 225.57 58.896C226.743 58.896 227.829 58.72 228.826 58.368C232.346 56.7253 235.69 54.672 238.858 52.208C239.797 51.5627 240.618 51.24 241.322 51.24C242.202 51.24 243.141 51.7093 244.138 52.648C244.842 53.2933 245.194 53.968 245.194 54.672C245.194 55.4347 244.637 56.3733 243.522 57.488C238.535 62.3573 233.226 64.792 227.594 64.792C226.069 64.792 224.191 64.4987 221.962 63.912C218.207 62.9733 215.333 60.8907 213.338 57.664C211.343 54.4373 210.346 50.7413 210.346 46.576C210.346 45.2853 210.434 44.0533 210.61 42.88C210.669 42.4693 210.786 41.6187 210.962 40.328C211.197 38.9787 211.549 37.864 212.018 36.984C214.247 32.584 218.207 30.1493 223.898 29.68ZM229.002 36.016C227.946 35.664 227.007 35.488 226.186 35.488C224.837 35.488 223.781 35.8987 223.018 36.72C222.255 37.5413 221.639 38.7733 221.17 40.416C222.578 40.592 224.074 40.24 225.658 39.36C227.301 38.4213 228.415 37.3067 229.002 36.016Z" fill="#413E3E"/>
</svg>
