<svg width="352" height="102" viewBox="0 0 352 102" fill="none" xmlns="http://www.w3.org/2000/svg">
<path d="M1.144 50.896V40.16H45.144V50.896H29.304V100H17.16V50.896H1.144ZM63.5683 100H51.7763V38.4H63.5683V58.112C67.6163 56 71.2536 54.944 74.4803 54.944C80.347 54.944 84.395 56.6747 86.6243 60.136C88.8536 63.5973 89.9683 68.936 89.9683 76.152V100H78.1763V76.416C78.1763 72.72 77.7363 69.992 76.8563 68.232C75.9763 66.4133 74.2163 65.504 71.5763 65.504C69.2883 65.504 67.0003 65.856 64.7123 66.56L63.5683 66.912V100ZM110.097 83.016C110.156 85.7147 110.86 87.68 112.209 88.912C113.617 90.0853 115.612 90.672 118.193 90.672C123.649 90.672 128.518 90.496 132.801 90.144L135.265 89.88L135.441 98.592C128.694 100.235 122.593 101.056 117.137 101.056C110.508 101.056 105.697 99.296 102.705 95.776C99.7129 92.256 98.2169 86.536 98.2169 78.616C98.2169 62.8347 104.7 54.944 117.665 54.944C130.454 54.944 136.849 61.5733 136.849 74.832L135.969 83.016H110.097ZM125.233 74.04C125.233 70.52 124.676 68.0853 123.561 66.736C122.446 65.328 120.481 64.624 117.665 64.624C114.908 64.624 112.942 65.3573 111.769 66.824C110.654 68.232 110.068 70.6373 110.009 74.04H125.233ZM178.98 69.728V88.032C179.098 89.44 179.332 90.4373 179.684 91.024C180.036 91.552 180.77 91.9333 181.884 92.168L181.532 101.056C178.54 101.056 176.135 100.851 174.316 100.44C172.556 100.029 170.767 99.208 168.948 97.976C164.724 100.029 160.412 101.056 156.012 101.056C146.919 101.056 142.372 96.2453 142.372 86.624C142.372 81.9307 143.634 78.616 146.156 76.68C148.679 74.6853 152.551 73.512 157.772 73.16L167.188 72.456V69.728C167.188 67.9093 166.778 66.6773 165.956 66.032C165.135 65.328 163.815 64.976 161.996 64.976L145.452 65.68L145.1 57.496C151.378 55.7947 157.332 54.944 162.964 54.944C168.655 54.944 172.732 56.1173 175.196 58.464C177.719 60.8107 178.98 64.5653 178.98 69.728ZM159.18 81.344C155.895 81.6373 154.252 83.3973 154.252 86.624C154.252 89.8507 155.69 91.464 158.564 91.464C160.794 91.464 163.228 91.112 165.868 90.408L167.188 90.056V80.64L159.18 81.344ZM214.598 66.032H203.774V84.072C203.774 85.832 203.803 87.0933 203.862 87.856C203.979 88.56 204.302 89.176 204.83 89.704C205.416 90.232 206.296 90.496 207.47 90.496L214.158 90.32L214.686 99.736C210.755 100.616 207.763 101.056 205.71 101.056C200.43 101.056 196.822 99.8827 194.886 97.536C192.95 95.1307 191.982 90.7307 191.982 84.336V66.032H186.79V56H191.982V43.768H203.774V56H214.598V66.032ZM224.652 61.016C227.762 56.968 232.954 54.944 240.228 54.944C247.503 54.944 252.695 56.968 255.804 61.016C258.914 65.0053 260.468 70.6373 260.468 77.912C260.468 93.3413 253.722 101.056 240.228 101.056C226.735 101.056 219.988 93.3413 219.988 77.912C219.988 70.6373 221.543 65.0053 224.652 61.016ZM233.716 87.856C234.948 89.968 237.119 91.024 240.228 91.024C243.338 91.024 245.479 89.968 246.652 87.856C247.884 85.744 248.5 82.4293 248.5 77.912C248.5 73.3947 247.884 70.1093 246.652 68.056C245.479 66.0027 243.338 64.976 240.228 64.976C237.119 64.976 234.948 66.0027 233.716 68.056C232.543 70.1093 231.956 73.3947 231.956 77.912C231.956 82.4293 232.543 85.744 233.716 87.856ZM280.904 100H269.112V56H280.816V58.464C284.806 56.1173 288.472 54.944 291.816 54.944C297.683 54.944 301.731 56.6747 303.96 60.136C306.19 63.5973 307.304 68.936 307.304 76.152V100H295.512V76.504C295.512 72.7493 295.072 69.992 294.192 68.232C293.312 66.4133 291.552 65.504 288.912 65.504C286.507 65.504 284.19 65.9147 281.96 66.736L280.904 67.088V100Z" fill="#413E3E"/>
<line x1="313" y1="99" x2="352" y2="99" stroke="#413E3E" stroke-width="4"/>
</svg>
