<svg width="309" height="114" viewBox="0 0 309 114" fill="none" xmlns="http://www.w3.org/2000/svg">
<path d="M59.0608 81.03C59.4923 92.5206 52.1747 98.5488 37.108 99.1146L11.8698 100.062L9.56479 38.6816L34.2754 37.7536C40.5483 37.5181 45.4388 38.7728 48.947 41.5177C52.5137 44.2605 54.3885 48.0648 54.5712 52.9307C54.8134 59.3795 52.1678 63.97 46.6344 66.7022L46.6443 66.9661C54.6534 69.1897 58.7922 73.8777 59.0608 81.03ZM19.5914 92.2871L36.0358 91.6695C41.7225 91.456 45.7053 90.4258 47.9843 88.579C50.3219 86.73 51.4301 84.1933 51.3091 80.9689C51.0581 74.2856 45.7443 71.1388 35.3676 71.5284L18.8352 72.1493L19.5914 92.2871ZM18.5644 64.9383L33.1621 64.3902C38.3798 64.1942 42.0109 63.1773 44.0553 61.3392C46.0998 59.5012 47.067 57.1166 46.9569 54.1853C46.8446 51.1954 45.6145 48.9227 43.2665 47.367C40.9771 45.8092 37.8684 45.104 33.9405 45.2515L17.8478 45.8558L18.5644 64.9383ZM67.6914 75.5103C67.4294 68.5339 69.2699 62.8288 73.213 58.395C77.1561 53.9613 82.4986 51.6178 89.2405 51.3646C96.041 51.1092 101.574 53.0443 105.838 57.1699C110.161 61.2932 112.454 66.8431 112.716 73.8195C112.978 80.7959 111.108 86.5021 107.106 90.9381C103.163 95.3718 97.7912 97.7164 90.9907 97.9718C84.2488 98.2249 78.7456 96.2888 74.4811 92.1632C70.2166 88.0377 67.9534 82.4867 67.6914 75.5103ZM80.4551 87.0955C83.4854 89.6235 86.9352 90.8149 90.8045 90.6696C94.6738 90.5243 97.9952 89.0787 100.769 86.3326C103.599 83.5258 104.914 79.4549 104.713 74.12C104.511 68.7265 102.894 64.7657 99.864 62.2376C96.8923 59.7074 93.4718 58.5149 89.6025 58.6602C85.7332 58.8055 82.3825 60.2522 79.5503 63.0004C76.7767 65.7465 75.4912 69.8162 75.6937 75.2098C75.8941 80.5447 77.4812 84.5066 80.4551 87.0955ZM146.99 56.9455L134.239 57.4243L135.236 83.9816C135.328 86.4439 136.06 87.9428 137.43 88.4784C138.562 88.9056 140.007 89.0862 141.766 89.0201C143.524 88.9541 145.441 88.4124 147.517 87.3952L148.132 87.372L148.377 93.8795C145.963 95.2617 143.349 96.0056 140.535 96.1113C131.976 96.4327 127.551 92.7241 127.26 84.9856L126.236 57.7248L117.882 58.0385L117.862 57.5109L133.618 40.892L133.981 50.5651L146.732 50.0863L146.99 56.9455ZM157.71 52.1398C162.727 49.7205 168.137 48.4019 173.941 48.1839C179.804 47.9638 184.352 49.4955 187.587 52.7791C190.822 56.0627 192.529 60.0788 192.707 64.8275L193.774 93.2314L186.739 93.4956L185.56 87.9039L185.296 87.9138C181.238 92.4106 175.897 94.7834 169.272 95.0322C165.285 95.1819 161.84 94.1077 158.936 91.8098C156.09 89.5096 154.589 86.2783 154.433 82.1159C154.277 77.9535 155.85 74.5187 159.153 71.8115C162.516 69.1021 167.509 67.623 174.134 67.3742L184.774 66.9747L184.748 66.2712C184.602 62.4019 183.53 59.6535 181.532 58.026C179.592 56.3963 176.277 55.6696 171.587 55.8457C166.897 56.0218 162.538 57.1835 158.509 59.3309L157.981 59.3507L157.71 52.1398ZM185.292 80.7809L185.015 73.3941L175.43 73.7541C166.577 74.0865 162.239 76.5977 162.415 81.2878C162.589 85.9192 165.783 88.1182 171.998 87.8848C174.577 87.788 177.046 87.0788 179.403 85.7574C181.758 84.3774 183.721 82.7186 185.292 80.7809ZM209.415 53.1923C213.536 48.8106 218.44 46.5129 224.126 46.2994C229.813 46.0858 234.819 48.07 239.144 52.252L239.408 52.2421L238.47 27.2677L246.473 26.9672L248.883 91.162L241.848 91.4261L240.67 85.8344L240.406 85.8443C236.406 90.3389 231.563 92.693 225.877 92.9065C220.19 93.1201 215.128 91.1967 210.689 87.1364C206.31 83.0739 203.987 77.4958 203.72 70.4021C203.454 63.3084 205.352 57.5718 209.415 53.1923ZM226.739 85.3889C232.015 85.1907 236.564 82.8184 240.386 78.2718L239.692 59.8048C235.541 55.5576 230.827 53.533 225.55 53.7312C221.212 53.8941 217.776 55.4028 215.241 58.2572C212.706 61.1117 211.534 65.0598 211.723 70.1016C211.912 75.1434 213.378 78.9924 216.119 81.6488C218.861 84.3051 222.401 85.5518 226.739 85.3889ZM261.965 48.2248C266.982 45.8055 272.392 44.4869 278.196 44.269C284.058 44.0488 288.607 45.5805 291.842 48.8641C295.077 52.1477 296.783 56.1638 296.962 60.9125L298.028 89.3165L290.993 89.5806L289.815 83.9889L289.551 83.9988C285.493 88.4956 280.151 90.8684 273.527 91.1172C269.54 91.2669 266.095 90.1927 263.19 87.8948C260.345 85.5946 258.844 82.3633 258.687 78.2009C258.531 74.0385 260.105 70.6037 263.408 67.8965C266.77 65.1871 271.764 63.708 278.388 63.4593L289.029 63.0597L289.002 62.3562C288.857 58.4869 287.785 55.7385 285.787 54.111C283.847 52.4814 280.532 51.7546 275.842 51.9307C271.152 52.1068 266.792 53.2686 262.763 55.4159L262.236 55.4357L261.965 48.2248ZM289.547 76.866L289.27 69.4792L279.684 69.8391C270.832 70.1715 266.494 72.6828 266.67 77.3728C266.844 82.0042 270.038 84.2032 276.252 83.9699C278.832 83.873 281.3 83.1639 283.658 81.8425C286.013 80.4624 287.976 78.8036 289.547 76.866Z" fill="#413E3E"/>
<path d="M105.117 81.1974C105.117 89.9249 96.6577 96.9999 86.2223 96.9999C75.7869 96.9999 68.5 84.2275 68.5 75.5C68.5 66.7725 78.5341 52.784 88.9695 52.784C99.4048 52.784 118.239 64.9011 105.117 81.1974Z" fill="#413E3E"/>
</svg>
